mtllib materials.mtl
v -0.03307225 -0.01359594 -0.02249125
v -0.03565694 0.01460648 -0.02407864
v -0.06518884 0.04214311 0.07147583
v 0.05007829 -0.01575875 -0.007165402
v -0.05750094 -0.007574439 0.08175832
v 0.05370453 0.01530385 -0.006537914
v 0.07397614 0.00848043 0.08388841
v 0.04738499 0 0.095
v 0.09758231 0.001487136 0.07062951
v 0.07722433 0.002480507 0.04149875
v 0.08219326 0.02870977 0.04679599
v 0.05980185 0.04598236 0.08115247
v 0.09713627 0.02826142 0.067031
v 0.08102459 0.03987384 0.1071009
v 0.1019376 0.00996542 0.1147521
v 0.09605414 -0.003533483 0.1117751
v 0.08724715 -0.01964748 0.1086549
v 0.04808058 -0.01399136 0.1435196
v 0.07108854 -0.008139253 0.1482893
v 0.06328845 -0.02255785 0.1402176
v -0.05624977 0.04665542 0.09292647
v -0.04738498 0 0.095
v 0.04738499 0.04738498 0.095
v 0.0236925 0.04738498 0.095
v 0 0.04738498 0.095
v -0.02369249 0.04738498 0.095
v -0.05189897 0.03520143 0.155126
v -0.05289308 0.01640022 0.1479104
v -0.02369249 0 0.095
v -0.02582259 0.02043688 0.1450253
v 0 0 0.095
v -0.005138323 0.03013134 0.1476973
v -0.03465781 0.03621268 0.1549383
v -0.03571604 0.01814699 0.1474476
v -0.0523096 -0.01308584 0.1923189
v -0.03980818 -0.01184428 0.1914763
v -0.04085661 -0.01684356 0.1746003
v -0.05337346 -0.01809049 0.1751575
v -0.05065933 -0.04724729 0.1824034
v -0.01020665 0.03635585 0.1638785
v -0.02671506 0.03592694 0.1625
v -0.009438299 0.02123904 0.1459928
v -0.02594614 -0.02147675 0.1958715
v -0.01339106 -0.02175558 0.1949606
v -0.02530318 -0.02039051 0.1746742
v -0.01275001 -0.02053308 0.1737075
v -0.02430709 -0.0509913 0.1821624
v 0.01211368 0.04484069 0.176302
v 0.0236925 0 0.095
v 0.01048569 0.03252518 0.1478025
v -0.003327049 0.04228568 0.1762549
v 0.0002531856 -0.02898824 0.194859
v 0.01154727 -0.02839279 0.1955692
v 0.0122145 -0.01741517 0.1757523
v 0.0009204224 -0.01801074 0.1750422
v -0.0001166165 -0.05390561 0.1810184
v 0.02127956 0.02328396 0.1717796
v 0.04174593 0.04784131 0.1749364
v 0.04231769 0.02172625 0.1700013
v 0.02015612 0.04910004 0.1779771
v 0.02535041 0.005304694 0.2265784
v 0.02490276 0.02791309 0.225054
v 0.03943783 0.02860582 0.2263646
v 0.02528726 0.009630084 0.2572163
v 0.0255678 -0.005881906 0.2515348
v 0.05267784 -0.02335131 0.1305494
v 0.01088087 -0.05170989 0.1826461
v 0.01093639 -0.04407513 0.1720531
v 0.00115066 -0.04584134 0.1728993
v -0.01173236 -0.05037117 0.1819921
v -0.01009116 -0.04795194 0.1696759
v -0.02266603 -0.04844928 0.1692732
v -0.04267231 -0.04632902 0.1825814
v -0.04079588 -0.04258358 0.1673511
v -0.05137593 -0.04331517 0.1712174
v 0.03591667 0.01020133 0.2568507
v 0.03979595 0.00599432 0.2278664
v 0.03613022 -0.005308986 0.2511621
vn -0.9583216 -0.1028305 -0.2665438
vn -0.03507463 -0.9981613 0.04943523
vn 0.04429581 0.9635126 -0.2639725
vn 0.1927603 -0.0375236 -0.9805282
vn 0.1170932 -0.9044933 -0.4100989
vn -0.2192987 -0.9682203 0.1202398
vn 0.8877811 -0.0945399 -0.4504519
vn 0.3434679 0.909678 -0.2334863
vn 0.3931735 0.9132666 -0.1065774
vn -0.7773415 -0.2517463 0.5765102
vn 0.8019476 -0.06643312 -0.5936891
vn 0.818414 -0.03926159 -0.5732861
vn 0.7925296 0.5918118 0.1471586
vn 0.9989663 0.02198884 0.0397854
vn 0.8792714 -0.4756444 -0.02538184
vn -0.6694021 -0.08923716 -0.7375213
vn 0.4745087 0.5145096 0.7142279
vn 0.7209837 -0.4334713 0.5406342
vn 0.7162943 -0.4880553 0.498723
vn -0.06666346 -0.4596919 0.8855729
vn -0.7564997 -0.1151273 0.643781
vn -0.002614318 0.9770272 -0.2130985
vn 0.7445207 5.116981E-08 0.6675994
vn -0.9854228 0.1038253 -0.1347668
vn -0.9990947 3.548989E-08 -0.04254192
vn -0.9952799 2.959708E-09 -0.09704618
vn -0.03332942 0.9836026 0.1772428
vn 0.9747149 -2.442935E-08 0.2234521
vn 2.627327E-08 -0.9450305 0.3269825
vn -0.9985375 0.03806315 0.0383926
vn -0.01858729 0.6083121 0.7934803
vn 0.9933244 -0.08874326 0.07369703
vn 0.03531045 -0.6178555 -0.7854985
vn -0.9939776 -0.07199635 0.08261378
vn -0.01605463 0.9867987 0.1611538
vn 0.9832986 2.510835E-09 0.1819997
vn 0.009266243 -0.924005 0.3822681
vn -0.999262 -0.02841223 -0.02584893
vn 0.07429439 0.4671711 0.88104
vn 0.9978768 -0.02186761 0.06135014
vn -0.07042476 -0.5476017 -0.8337702
vn -0.9986582 -0.04042722 -0.03236288
vn -1.756824E-09 0.9995107 0.03127892
vn 0.9701157 5.491369E-09 0.2426427
vn -1.77646E-08 -0.8514326 0.5244641
vn -0.9966449 -0.03020775 0.0760691
vn -0.04435867 0.2502252 0.967171
vn 0.998628 -0.02041112 -0.04822443
vn 0.08012789 -0.4846968 -0.8710043
vn -0.9994821 0.02563765 -0.01945089
vn -0.9995065 1.575981E-08 -0.03141138
vn -3.714181E-09 0.9999837 -0.005708603
vn 0.9977254 5.68163E-08 0.06740923
vn 8.980584E-08 -0.9605117 0.2782396
vn -0.9968506 -0.05669232 0.05545282
vn 0.1092469 0.9105225 0.3987655
vn 0.9986957 0.0125106 0.04950088
vn -0.09586937 -0.9478767 -0.3038731
vn -0.9998161 -0.01916928 0.0006454394
vn 1.160882E-08 -0.8680238 0.4965227
vn 1.160882E-08 -0.8680238 0.4965226
vn 1.160881E-08 -0.8680238 0.4965227
vn 1.160882E-08 -0.8680238 0.4965227
vn 0.3407726 -0.926892 0.1573066
vn 0.3260577 0.190786 0.925898
vn -0.9153581 -0.08542176 0.3934751
vn -0.4979296 -0.6934527 -0.5207586
vn -0.9578742 -0.192243 -0.2133536
vn 0.1144043 -0.9670553 0.2274107
vn 0.8824019 -0.07330313 -0.4647512
vn -0.4611654 0.6338819 -0.6209028
vn 0.09344035 -0.9954064 -0.02085687
vn -0.3095164 0.6552202 0.6891199
vn 0.7274056 -0.5898284 0.3506901
vn 0.1812287 -0.001290371 -0.9834402
vn -0.3580227 -0.8127517 0.4596241
vn 0.9104442 -0.3472531 -0.2247369
vn 0.1044831 -0.9468119 0.3043526
vn -0.05554335 0.9812466 0.1845808
vn 0.9800764 -0.1223011 0.1565021
vn -0.9989356 -0.005952077 -0.04574149
vn 0.9861782 -0.1032216 0.129607
vn -0.9775622 0.2089202 -0.02691596
vn -0.1631679 0.9850564 0.05513792
vn 0.912102 -0.3927315 0.117609
vn 0.1277113 -0.8555854 0.5016608
vn -0.003446415 0.9439715 -0.3300091
vn -0.02123138 0.9925978 -0.1195781
vn 0.1953219 0.9214097 -0.3359367
vn -0.9168318 -0.06013606 0.3947191
vn -0.03103674 -0.4844387 0.8742746
vn 0.9987869 -0.0487987 0.006597107
vn 0.05851278 0.07712065 -0.9953033
vn 0.2396499 -0.7072661 -0.6650885
vn -0.9885457 0.003439622 -0.1508827
vn 0.9996869 -0.02249041 -0.01097066
vn 0.04473717 -0.414587 0.9089094
vn 0.9951968 0.09131981 0.03527075
vn -0.0734458 0.1818464 -0.9805803
vn 0.04533077 -0.9812671 -0.1872433
vn -0.9881023 -0.06614175 -0.1388499
vn 0.9912922 -0.002209055 0.1316624
vn 0.09027741 -0.2557653 0.9625145
vn 0.9974263 0.0216075 -0.06836668
vn -0.06967162 0.270276 -0.9602587
vn -0.02105236 -0.970248 -0.2411962
vn -0.9958616 -0.08420341 0.03419796
vn -0.3480234 0.1177146 -0.9300662
vn 0.01058361 -0.2782632 0.9604466
vn 0.9896618 -0.1068679 0.09564918
vn -0.9975936 0.05099944 0.04696963
vn 0.9918525 -0.1249957 -0.02459112
vn 0.1149665 -0.934827 -0.3359782
vn -0.06217952 0.8626075 0.5020379
vn 0.985415 0.0267679 0.1680499
vn 0.06105894 -0.9063556 -0.4180807
vn 0.05119906 -0.3429583 0.9379543
vn 0.9946318 -0.02328417 0.1008239
vn 0.9986318 0.01905039 0.04869935
vn 0.06907962 -0.9634258 -0.2589186
vn -0.07579246 0.9350459 0.3463303
vn -0.9954485 -0.01334741 0.09436157
vn -0.9988329 -0.03605004 -0.03214386
vn 0.9977548 -0.06148123 0.02655873
vn 0.02581617 0.1478728 -0.9886694
vn -0.9678666 -0.2047375 -0.1460028
vn 0.08032279 -0.4846354 -0.8710206
vn 0.9941173 0.077028 0.07614224
vn -0.07404163 0.2542709 0.9642947
vn -0.1106563 0.1417986 -0.9836912
vn 0.09549272 -0.807781 -0.5816968
vn -0.04641725 -0.9563369 0.2885571
vn 0.05562995 0.9982845 -0.01826273
vn -0.9985647 -0.03340397 -0.04186724
vn 0.997488 0.008550251 0.07031833
vn -0.9821157 -0.1850688 0.03461781
vn -0.08496068 0.4999217 0.8618933
vn 0.07632264 -0.5852547 -0.8072496
vt -0.1312054 0.04782852
vt -0.1335179 0.0494711
vt -0.1413675 0.0426892
vt 0.04564888 -0.004114092
vt 0.04154266 -0.01150832
vt 0.05065054 -0.01717014
vt -0.07426055 -0.005683287
vt -0.07976849 -0.0190655
vt -0.07068343 -0.01405829
vt -0.1099996 0.08902849
vt -0.1144487 0.0810823
vt -0.111856 0.07993163
vt 0.002520564 0.03810326
vt -0.003139663 0.02612632
vt 0.002501723 0.0350992
vt 0.0565824 -0.03181204
vt 0.05603779 -0.02906924
vt 0.05263922 -0.03011332
vt 0.00927197 0.1456791
vt 0.009740179 0.1425864
vt 0.01487591 0.1483162
vt -0.06944402 -0.05045617
vt -0.0665259 -0.04709678
vt -0.06884845 -0.04612969
vt -0.04311445 -0.05595625
vt -0.04623159 -0.05916307
vt -0.04302757 -0.06032266
vt 0.08703492 0.1230463
vt 0.08453772 0.1253646
vt 0.08328582 0.1215999
vt -0.02345309 0.1450339
vt -0.02501225 0.1472405
vt -0.02724363 0.1460784
vt -0.02408944 0.1444803
vt -0.02089161 0.1460341
vt -0.02466458 0.1471405
vt 0.0845028 -0.06434156
vt 0.08113742 -0.06821781
vt 0.08482012 -0.06880246
vt 0.1246781 0.08082677
vt 0.1232437 0.07853705
vt 0.1260923 0.07552193
vt 0.08773448 0.1086924
vt 0.09047948 0.1051627
vt 0.0914125 0.1067748
vt -0.1280117 0.03933226
vt -0.1335702 0.04155541
vt -0.130759 0.03483024
vt 0.09612197 0.0154942
vt 0.0924053 0.01579501
vt 0.09160233 0.01095795
vt 0.1320345 0.06980197
vt 0.1309337 0.06877964
vt 0.1319219 0.06414624
vt 0.1280725 0.0707505
vt 0.1268282 0.06936438
vt 0.1291438 0.06613562
vt 0.1371392 0.05458067
vt 0.1372058 0.05700124
vt 0.1358379 0.05578982
vt 0.07126154 0.1275249
vt 0.07442575 0.1320702
vt 0.07060995 0.1292354
vt -0.07413036 -0.01349446
vt -0.07912101 -0.003119951
vt -0.07856367 -0.005422704
vt -0.07800633 -0.007725459
vt -0.07744898 -0.01002821
vt -0.07647108 -0.01314132
vt 0.1382167 0.04714154
vt 0.1350414 0.04333091
vt 0.1392185 0.04556822
vt -0.1250559 0.07844104
vt -0.1319524 0.07735253
vt -0.1302101 0.07633789
vt -0.1242609 0.07928592
vt -0.1272181 0.08298837
vt -0.1294486 0.07775793
vt -0.1282722 0.0720588
vt -0.1314518 0.07557215
vt -0.1342198 0.07074006
vt -0.0236288 0.000515649
vt -0.02510149 0.003427567
vt -0.03025708 -7.030801E-06
vt 0.1381703 0.06112245
vt 0.1346039 0.05800254
vt 0.1395126 0.05514747
vt 0.09102249 -0.007586755
vt 0.0906163 -0.009920926
vt 0.09628402 -0.00972279
vt -0.1178858 0.09426363
vt -0.1194677 0.09551375
vt -0.1202041 0.08946321
vt 0.06468099 0.04877501
vt 0.06385673 0.05029275
vt 0.05898175 0.04669488
vt 0.05950817 0.04555118
vt 0.1280462 0.08396227
vt 0.1263756 0.08294005
vt 0.1265038 0.07848316
vt -0.06060711 0.05066277
vt -0.06136477 0.04911068
vt -0.05764323 0.04677135
vt -0.05710133 0.04790783
vt -0.1215596 0.08507625
vt -0.123277 0.08456877
vt -0.1206052 0.0822146
vt -0.0263261 0.0001498037
vt -0.0272621 0.002325995
vt -0.033267 -0.001367297
vt -0.03249577 -0.002833547
vt 0.1361917 0.06563167
vt 0.1327352 0.06239032
vt 0.1378319 0.06006038
vt 0.09834094 -0.001948856
vt 0.0980168 -0.004295725
vt 0.1033406 -0.005246267
vt 0.1036838 -0.0036394
vt -0.1299842 0.07637855
vt -0.132319 0.07647922
vt -0.1312881 0.06991937
vt 0.08566755 0.05302166
vt 0.0801999 0.0493289
vt 0.0808378 0.04824333
vt 0.1319729 0.07797082
vt 0.1296306 0.07791059
vt 0.1307732 0.07148295
vt -0.07553356 0.04750622
vt -0.07206009 0.04350518
vt -0.07143631 0.04459893
vt -0.1310046 0.06851454
vt -0.1325525 0.0670609
vt -0.1295938 0.06569598
vt -0.04439554 -0.005336905
vt -0.04522278 -0.003116766
vt -0.05244075 -0.007041884
vt 0.138081 0.06021345
vt 0.1344683 0.05714722
vt 0.1404701 0.05510213
vt 0.1144699 0.008089833
vt 0.1143708 0.005722655
vt 0.1206108 0.006510991
vt -0.1192028 0.09451936
vt -0.1222828 0.09409622
vt -0.1202426 0.08700916
vt 0.1011131 0.07499395
vt 0.1005508 0.07645454
vt 0.09456068 0.07160939
vt 0.1221955 0.09513585
vt 0.1191118 0.09553122
vt 0.1201148 0.08785452
vt -0.07323822 0.06954531
vt -0.07388652 0.06810372
vt -0.06827451 0.06669159
vt -0.1257128 0.07962157
vt -0.1266845 0.07757401
vt -0.1241082 0.07635393
vt -0.1231443 0.08098666
vt -0.126051 0.08472886
vt -0.1306392 0.07811322
vt -0.05031746 -0.004173577
vt -0.05110865 -0.00194034
vt -0.05845521 -0.00514135
vt 0.1290064 0.07973893
vt 0.1259428 0.07612399
vt 0.1330823 0.07292134
vt 0.08625137 -0.00203627
vt 0.08577798 -0.004357743
vt 0.09380113 -0.004092977
vt -0.1259824 0.08482651
vt -0.1279453 0.08661772
vt -0.1295069 0.08024336
vt 0.007733685 -0.0008572821
vt 0.006886882 0.001155782
vt 0.002980227 -0.002926374
vt 0.1346084 0.07536066
vt 0.132556 0.07367116
vt 0.1373328 0.07058784
vt 0.008590319 -0.004289157
vt 0.00773373 -0.006225177
vt 0.01305145 -0.008494333
vt -0.1323775 0.07582314
vt -0.1336019 0.07773031
vt -0.1350961 0.07434566
vt -0.1337156 0.07343788
vt 0.1094893 -0.002001701
vt 0.1110743 -0.001086044
vt 0.1112203 0.001278701
vt 0.1094893 -0.002001704
vt 0.1112203 0.001278698
vt 0.1113663 0.003643443
vt 0.1094893 -0.002001703
vt 0.1113663 0.003643445
vt 0.1115123 0.006008192
vt 0.1094893 -0.002001703
vt 0.1115123 0.006008192
vt 0.1116583 0.008372937
vt 0.07228997 0.04320677
vt 0.08200611 0.04350834
vt 0.07792265 0.04483486
vt 0.1197718 0.05553
vt 0.1157815 0.0550554
vt 0.1162066 0.0520815
vt -0.03006128 0.1439457
vt -0.02684213 0.1462789
vt -0.02871175 0.1497782
vt -0.06898295 -0.01260805
vt -0.07011373 -0.01516557
vt -0.06626375 -0.01615771
vt -0.1420441 0.02968156
vt -0.1380367 0.02647097
vt -0.132258 0.03550514
vt 0.07946524 0.001894212
vt 0.08287421 0.01469516
vt 0.07315874 0.0143724
vt 0.004731397 0.1430844
vt 0.009660998 0.1462588
vt 0.00967547 0.1489804
vt -0.1305532 0.05275901
vt -0.1289349 0.05314748
vt -0.1273191 0.0569251
vt 0.05450161 0.01479378
vt 0.05541785 0.01078856
vt 0.05668242 0.01147248
vt 0.02332746 0.08317612
vt 0.02452513 0.08107156
vt 0.02813863 0.08740192
vt 0.1187008 0.07251705
vt 0.1201817 0.07358759
vt 0.1184305 0.07816745
vt -0.1147289 0.07806349
vt -0.110493 0.08538416
vt -0.1130444 0.08719374
vt 0.1112094 -0.0279457
vt 0.1102299 -0.02899803
vt 0.1117687 -0.02963177
vt 0.06953814 0.1253102
vt 0.07014763 0.1266833
vt 0.06568597 0.129222
vt 0.09018505 0.002377986
vt 0.09554263 0.0008665271
vt 0.09585313 0.002565571
vt -0.03053223 0.00353003
vt -0.02987904 0.00193112
vt -0.02390362 0.004048508
vt 0.1306751 0.07597499
vt 0.1323976 0.07690728
vt 0.1284472 0.08167922
vt -0.1279429 0.0817347
vt -0.132458 0.07657903
vt -0.130123 0.07648307
vt 0.1298751 0.07808844
vt 0.1322176 0.07814088
vt 0.1275191 0.08339682
vt -0.1111675 0.1025458
vt -0.1180322 0.09815604
vt -0.1149369 0.09844671
vt -0.05720798 0.01710911
vt -0.05668541 0.01563386
vt -0.04914267 0.01871629
vt 0.1138897 0.09401025
vt 0.1169887 0.0937613
vt 0.1100238 0.09811975
vt 0.1129864 0.01688454
vt 0.1190216 0.01605449
vt 0.1192327 0.01762099
vt -0.08383721 0.002123039
vt -0.09309652 0.001151131
vt -0.08995527 -0.01099148
vt -0.06194034 -0.01087538
vt -0.0664055 0.0008452333
vt -0.06739391 -0.0007365515
vt -0.08685604 -0.02145833
vt -0.09018251 -0.0244139
vt -0.08094021 -0.02329171
vt -0.02290522 0.144545
vt -0.02090945 0.1492762
vt -0.02313665 0.1500784
vt 0.1399137 0.04803496
vt 0.1397037 0.04914854
vt 0.1371466 0.04839168
vt 0.1371708 0.04725873
vt 0.1241111 0.08216051
vt 0.1230674 0.08417227
vt 0.1212839 0.08215238
vt -0.1213422 0.07453106
vt -0.1217757 0.07348406
vt -0.1192521 0.07229104
vt -0.02212958 0.06357871
vt -0.02121738 0.06287624
vt -0.02065971 0.06386273
vt -0.1333621 0.0563327
vt -0.1333521 0.05748399
vt -0.1354736 0.05929815
vt 0.1212728 0.08195926
vt 0.121734 0.08073764
vt 0.1241 0.08196779
vt 0.1404694 0.05055897
vt 0.1400478 0.05174528
vt 0.1369909 0.05100132
vt 0.137305 0.04978209
vt 0.1356351 0.05785126
vt 0.1341879 0.05941387
vt 0.1319818 0.05771554
vt -0.131589 0.06208219
vt -0.1320999 0.06093138
vt -0.1293588 0.06008235
vt 0.03264443 0.001778786
vt 0.03378268 0.001102566
vt 0.03426035 0.002267555
vt 0.03317579 0.002920288
vt -0.1360883 0.04704738
vt -0.1354173 0.04818872
vt -0.137901 0.0496259
vt 0.1323045 0.05948301
vt 0.1330293 0.05844525
vt 0.1359586 0.05959295
vt 0.1376425 0.05553114
vt 0.1372918 0.05674043
vt 0.1340608 0.05521523
vt 0.1209862 0.0884787
vt 0.1192799 0.0889231
vt 0.117332 0.087091
vt -0.1366682 0.05657603
vt -0.1370083 0.05536374
vt -0.1341605 0.05564721
vt 0.02031818 -0.007014013
vt 0.02175268 -0.006727676
vt 0.02041395 -0.00588927
vt -0.1273239 0.07058587
vt -0.1266838 0.07158653
vt -0.128547 0.07334338
vt -0.1358453 0.0474234
vt -0.1334077 0.04663837
vt -0.1329958 0.04768933
vt 0.1337587 0.05716083
vt 0.1339546 0.05638091
vt 0.1373394 0.05748709
vt 0.1250659 0.07571673
vt 0.1260648 0.07449303
vt 0.1288364 0.07674768
vt -0.1181648 0.09205651
vt -0.1164205 0.0924619
vt -0.1157416 0.09680489
vt 0.114195 0.09473914
vt 0.1159228 0.09438765
vt 0.1149938 0.1003749
vt 0.01566482 0.01695716
vt 0.01676172 0.0165013
vt 0.01710195 0.01722994
vt 0.005605618 0.0288269
vt 0.004831565 0.03006555
vt 0.001886776 0.02803276
vt 0.002347988 0.02707334
vt 0.1436018 0.05281531
vt 0.1420273 0.05118509
vt 0.1427825 0.04868137
vt 0.008372902 0.02247085
vt 0.007621435 0.02122884
vt 0.01005373 0.01997853
vt 0.01049357 0.02094085
vt 0.1402933 0.06061719
vt 0.141867 0.06112042
vt 0.1415645 0.06214169
vt 0.1399929 0.06163213
vt 0.1383096 0.06428602
vt 0.1397581 0.06508067
vt 0.1386583 0.06848591
vt 0.1328968 0.07281698
vt 0.1363124 0.06788181
vt 0.1376562 0.06970688
vt 0.03046837 0.01171999
vt 0.03117369 0.01298909
vt 0.02583899 0.01573921
vt -0.01387607 0.02254105
vt -0.01868998 0.01988998
vt -0.01795268 0.01862862
vt -0.1187001 0.1000414
vt -0.1218656 0.09593577
vt -0.120933 0.0938701
vt -0.1322612 0.06776966
vt -0.130706 0.06921557
vt -0.1310616 0.07424901
vt 0.1238548 0.08731074
vt 0.1237821 0.08228733
vt 0.125467 0.08098453
vt -0.1253528 0.06600226
vt -0.12489 0.06717326
vt -0.1275288 0.06806084
vt -0.1400957 0.01824122
vt -0.1400558 0.02050726
vt -0.1429533 0.02526394
vt -0.07388034 0.06812699
vt -0.06884767 0.06574091
vt -0.06826833 0.06671483
vt 0.1373621 0.06146594
vt 0.135726 0.05597911
vt 0.1363261 0.05379362
vt 0.09848581 0.07901341
vt 0.09197992 0.07513781
vt 0.09251815 0.07414059
vt -0.127575 0.06155274
vt -0.1273384 0.06252228
vt -0.1297637 0.06369647
vt -0.01563271 0.03792326
vt -0.01676248 0.03857798
vt -0.01710268 0.03763978
vt 0.08597721 -0.01002072
vt 0.09379169 -0.01185503
vt 0.09400012 -0.009748261
vt -0.05743872 -0.01349688
vt -0.05699717 -0.0156357
vt -0.04930438 -0.01250082
vt -0.1293577 0.07844559
vt -0.1357845 0.07318228
vt -0.1336325 0.0716233
vt 0.1337711 0.07128344
vt 0.1358575 0.07293083
vt 0.1297747 0.07814793
vt -0.1321712 0.05864595
vt -0.1354576 0.06208048
vt -0.1388911 0.05675132
vt 0.06686055 0.06240262
vt 0.07255199 0.06582342
vt 0.07165473 0.06721664
vt -0.06104066 0.06009954
vt -0.06189558 0.0586962
vt -0.05757226 0.0560941
o group2098783903
g mesh2098783903
usemtl mat16
f 3/3/1 2/2/1 1/1/1
f 5/6/2 1/5/2 4/4/2
f 2/9/3 3/8/3 6/7/3
f 1/12/4 2/11/4 6/10/4
f 8/15/5 5/14/5 7/13/5
f 10/18/6 9/17/6 7/16/6
f 11/21/7 4/20/7 6/19/7
f 13/24/8 11/23/8 12/22/8
f 12/27/9 14/26/9 13/25/9
f 7/30/10 14/29/10 12/28/10
f 11/33/11 13/32/11 9/31/11
f 11/36/12 9/35/12 10/34/12
f 14/39/13 15/38/13 13/37/13
f 16/42/14 9/41/14 13/40/14
f 16/45/15 17/44/15 9/43/15
f 18/48/16 14/47/16 17/46/16
f 19/51/17 15/50/17 14/49/17
f 20/54/18 16/53/18 15/52/18
f 20/57/19 17/56/19 16/55/19
f 20/60/20 19/59/20 18/58/20
f 22/63/21 21/62/21 5/61/21
f 21/69/22 26/68/22 25/67/22 24/66/22 23/65/22 3/64/22
f 23/72/23 8/71/23 12/70/23
f 28/75/24 27/74/24 22/73/24
f 30/78/25 26/77/25 29/76/25
f 32/81/26 25/80/26 31/79/26
f 33/84/27 26/83/27 21/82/27
f 34/87/28 29/86/28 26/85/28
f 34/90/29 22/89/29 29/88/29
f 35/93/30 27/92/30 28/91/30
f 35/97/31 36/96/31 33/95/31 27/94/31
f 37/100/32 34/99/32 33/98/32
f 37/104/33 38/103/33 28/102/33 34/101/33
f 39/107/34 35/106/34 38/105/34
f 41/111/35 40/110/35 25/109/35 26/108/35
f 42/114/36 31/113/36 25/112/36
f 42/118/37 30/117/37 29/116/37 31/115/37
f 43/121/38 41/120/38 30/119/38
f 43/124/39 44/123/39 40/122/39
f 44/127/40 42/126/40 40/125/40
f 46/130/41 45/129/41 42/128/41
f 47/133/42 43/132/42 45/131/42
f 48/136/43 24/135/43 25/134/43
f 50/139/44 49/138/44 24/137/44
f 50/142/45 31/141/45 49/140/45
f 52/145/46 51/144/46 32/143/46
f 52/148/47 48/147/47 51/146/47
f 53/151/48 50/150/48 48/149/48
f 54/154/49 32/153/49 50/152/49
f 56/157/50 52/156/50 55/155/50
f 57/160/51 24/159/51 49/158/51
f 58/163/52 23/162/52 24/161/52
f 59/166/53 8/165/53 23/164/53
f 59/169/54 49/168/54 8/167/54
f 61/172/55 60/171/55 57/170/55
f 62/175/56 58/174/56 60/173/56
f 63/178/57 59/177/57 58/176/57
f 61/181/58 57/180/58 59/179/58
f 65/185/59 64/184/59 62/183/59 61/182/59
f 29/188/60 22/187/60 5/186/60
f 31/191/61 29/190/61 5/189/61
f 49/194/62 31/193/62 5/192/62
f 8/197/63 49/196/63 5/195/63
f 10/200/64 7/199/64 4/198/64
f 8/203/65 7/202/65 12/201/65
f 14/206/66 7/205/66 17/204/66
f 17/209/67 7/208/67 9/207/67
f 1/212/68 5/211/68 3/210/68
f 4/215/69 7/214/69 5/213/69
f 11/218/70 10/217/70 4/216/70
f 17/221/71 66/220/71 18/219/71
f 20/224/72 66/223/72 17/222/72
f 14/227/73 18/226/73 19/225/73
f 15/230/74 19/229/74 20/228/74
f 6/233/75 4/232/75 1/231/75
f 18/236/76 66/235/76 20/234/76
f 13/239/77 15/238/77 16/237/77
f 34/242/78 28/241/78 22/240/78
f 21/245/79 27/244/79 33/243/79
f 26/248/80 33/247/80 34/246/80
f 30/251/81 41/250/81 26/249/81
f 25/254/82 40/253/82 42/252/82
f 32/257/83 51/256/83 25/255/83
f 25/260/84 51/259/84 48/258/84
f 24/263/85 48/262/85 50/261/85
f 50/266/86 32/265/86 31/264/86
f 3/269/87 12/268/87 6/267/87
f 23/272/88 12/271/88 3/270/88
f 6/275/89 12/274/89 11/273/89
f 21/278/90 3/277/90 5/276/90
f 56/282/91 67/281/91 53/280/91 52/279/91
f 68/285/92 54/284/92 53/283/92
f 69/288/93 55/287/93 54/286/93
f 67/291/94 56/290/94 69/289/94
f 55/294/95 69/293/95 56/292/95
f 53/297/96 67/296/96 68/295/96
f 47/301/97 70/300/97 44/299/97 43/298/97
f 71/304/98 46/303/98 44/302/98
f 72/307/99 45/306/99 46/305/99
f 71/311/100 70/310/100 47/309/100 72/308/100
f 45/314/101 72/313/101 47/312/101
f 44/317/102 70/316/102 71/315/102
f 73/320/103 36/319/103 35/318/103
f 74/323/104 37/322/104 36/321/104
f 74/326/105 38/325/105 37/324/105
f 74/329/106 73/328/106 75/327/106
f 38/332/107 75/331/107 39/330/107
f 74/335/108 75/334/108 38/333/108
f 35/338/109 39/337/109 73/336/109
f 36/341/110 73/340/110 74/339/110
f 28/344/111 38/343/111 35/342/111
f 33/347/112 36/346/112 37/345/112
f 73/350/113 39/349/113 75/348/113
f 64/354/114 76/353/114 63/352/114 62/351/114
f 78/357/115 77/356/115 63/355/115
f 78/361/116 65/360/116 61/359/116 77/358/116
f 78/365/117 76/364/117 64/363/117 65/362/117
f 63/368/118 76/367/118 78/366/118
f 63/371/119 77/370/119 59/369/119
f 59/374/120 77/373/120 61/372/120
f 62/377/121 63/376/121 58/375/121
f 61/380/122 62/379/122 60/378/122
f 30/383/123 45/382/123 43/381/123
f 44/386/124 46/385/124 42/384/124
f 46/389/125 71/388/125 72/387/125
f 32/392/126 55/391/126 52/390/126
f 54/395/127 55/394/127 32/393/127
f 53/398/128 54/397/128 50/396/128
f 52/401/129 53/400/129 48/399/129
f 54/404/130 68/403/130 69/402/130
f 69/407/131 68/406/131 67/405/131
f 59/410/132 57/409/132 49/408/132
f 24/413/133 60/412/133 58/411/133
f 57/416/134 60/415/134 24/414/134
f 23/419/135 58/418/135 59/417/135
f 27/422/136 21/421/136 22/420/136
f 40/425/137 41/424/137 43/423/137
f 45/428/138 30/427/138 42/426/138
